name C:\Users\antoi\Documents\MyRepositories\upper-imu-dc\Results\main_tracking\Case_76\FLX01_linearAccelerations_groundFrame.mot
datacolumns 4
datarows 105
range 2.01000000 3.05000000
endheader 
time	radius_imu_x	radius_imu_y	radius_imu_z	
          2.01000000	         -0.42148443	          9.07610895	         -0.02241656	
          2.02000000	         -0.39109780	          9.06931737	         -0.07291480	
          2.03000000	         -0.36251163	          9.06693056	         -0.12027685	
          2.04000000	         -0.33596564	          9.06862013	         -0.16371968	
          2.05000000	         -0.31171228	          9.07410261	         -0.20271126	
          2.06000000	         -0.28999984	          9.08308366	         -0.23696590	
          2.07000000	         -0.27105629	          9.09521908	         -0.26635703	
          2.08000000	         -0.25508525	          9.11011426	         -0.29079129	
          2.09000000	         -0.24226162	          9.12734565	         -0.31011507	
          2.10000000	         -0.23270341	          9.14647845	         -0.32408352	
          2.11000000	         -0.22643244	          9.16710651	         -0.33243427	
          2.12000000	         -0.22332955	          9.18886977	         -0.33498399	
          2.13000000	         -0.22312759	          9.21145614	         -0.33169488	
          2.14000000	         -0.22546354	          9.23459196	         -0.32267599	
          2.15000000	         -0.22995287	          9.25801447	         -0.30815481	
          2.16000000	         -0.23622990	          9.28142814	         -0.28847809	
          2.17000000	         -0.24392970	          9.30446212	         -0.26415569	
          2.18000000	         -0.25262995	          9.32664526	         -0.23592251	
          2.19000000	         -0.26178881	          9.34740939	         -0.20477239	
          2.20000000	         -0.27071662	          9.36611657	         -0.17192314	
          2.21000000	         -0.27860659	          9.38210618	         -0.13868983	
          2.22000000	         -0.28462724	          9.39474038	         -0.10630415	
          2.23000000	         -0.28805028	          9.40344291	         -0.07570223	
          2.24000000	         -0.28833608	          9.40772581	         -0.04735815	
          2.25000000	         -0.28514857	          9.40719674	         -0.02121549	
          2.26000000	         -0.27829735	          9.40155759	          0.00325066	
          2.27000000	         -0.26764876	          9.39061333	          0.02685045	
          2.28000000	         -0.25306044	          9.37431243	          0.05042881	
          2.29000000	         -0.23437507	          9.35282018	          0.07461876	
          2.30000000	         -0.21146958	          9.32659715	          0.09965352	
          2.31000000	         -0.18431183	          9.29643417	          0.12525194	
          2.32000000	         -0.15304985	          9.26344916	          0.15065456	
          2.33000000	         -0.11806236	          9.22901367	          0.17472531	
          2.34000000	         -0.08000364	          9.19464378	          0.19615695	
          2.35000000	         -0.03980265	          9.16186444	          0.21371981	
          2.36000000	          0.00139798	          9.13207849	          0.22647151	
          2.37000000	          0.04233823	          9.10647407	          0.23384987	
          2.38000000	          0.08174706	          9.08597933	          0.23561834	
          2.39000000	          0.11845195	          9.07125418	          0.23171123	
          2.40000000	          0.15147983	          9.06269973	          0.22207856	
          2.41000000	          0.18012453	          9.06046939	          0.20661776	
          2.42000000	          0.20396680	          9.06447973	          0.18521637	
          2.43000000	          0.22285469	          9.07443060	          0.15786504	
          2.44000000	          0.23685711	          9.08983976	          0.12477805	
          2.45000000	          0.24620260	          9.11008551	          0.08647794	
          2.46000000	          0.25121905	          9.13444696	          0.04383281	
          2.47000000	          0.25228746	          9.16213696	         -0.00194960	
          2.48000000	          0.24980784	          9.19232922	         -0.04936279	
          2.49000000	          0.24416418	          9.22418753	         -0.09667584	
          2.50000000	          0.23569126	          9.25690643	         -0.14205465	
          2.51000000	          0.22466976	          9.28975931	         -0.18374090	
          2.52000000	          0.21136067	          9.32213643	         -0.22026059	
          2.53000000	          0.19606301	          9.35354179	         -0.25061631	
          2.54000000	          0.17917928	          9.38356470	         -0.27439269	
          2.55000000	          0.16126676	          9.41186585	         -0.29174136	
          2.56000000	          0.14301636	          9.43815066	         -0.30328639	
          2.57000000	          0.12520185	          9.46218577	         -0.30995228	
          2.58000000	          0.10857830	          9.48381662	         -0.31276660	
          2.59000000	          0.09375473	          9.50296272	         -0.31268557	
          2.60000000	          0.08109191	          9.51960550	         -0.31047312	
          2.61000000	          0.07065762	          9.53377029	         -0.30665413	
          2.62000000	          0.06225886	          9.54551668	         -0.30153055	
          2.63000000	          0.05554014	          9.55493978	         -0.29522611	
          2.64000000	          0.05010999	          9.56216902	         -0.28772371	
          2.65000000	          0.04564112	          9.56735982	         -0.27887373	
          2.66000000	          0.04192301	          9.57067975	         -0.26838873	
          2.67000000	          0.03885231	          9.57230325	         -0.25585730	
          2.68000000	          0.03639439	          9.57241013	         -0.24080591	
          2.69000000	          0.03453011	          9.57118282	         -0.22279711	
          2.70000000	          0.03321634	          9.56878592	         -0.20152165	
          2.71000000	          0.03237655	          9.56532958	         -0.17684536	
          2.72000000	          0.03193039	          9.56083632	         -0.14881594	
          2.73000000	          0.03186405	          9.55523425	         -0.11767647	
          2.74000000	          0.03232440	          9.54838200	         -0.08387438	
          2.75000000	          0.03370876	          9.54012585	         -0.04809525	
          2.76000000	          0.03666227	          9.53037073	         -0.01124440	
          2.77000000	          0.04186267	          9.51915405	          0.02570409	
          2.78000000	          0.04977108	          9.50667622	          0.06186434	
          2.79000000	          0.06116821	          9.49313847	          0.09619123	
          2.80000000	          0.07710947	          9.47869453	          0.12775203	
          2.81000000	          0.09711729	          9.46381315	          0.15653455	
          2.82000000	          0.12151043	          9.44878451	          0.18222056	
          2.83000000	          0.15024994	          9.43397610	          0.20475024	
          2.84000000	          0.18284670	          9.41981652	          0.22441982	
          2.85000000	          0.21870077	          9.40669636	          0.24173545	
          2.86000000	          0.25724296	          9.39491292	          0.25733804	
          2.87000000	          0.29796297	          9.38465412	          0.27193257	
          2.88000000	          0.34038736	          9.37602066	          0.28618347	
          2.89000000	          0.38403928	          9.36907189	          0.30060165	
          2.90000000	          0.42843245	          9.36386680	          0.31545006	
          2.91000000	          0.47318591	          9.36047182	          0.33067393	
          2.92000000	          0.51797114	          9.35898892	          0.34589888	
          2.93000000	          0.56242433	          9.35956656	          0.36049601	
          2.94000000	          0.60635247	          9.36234183	          0.37364583	
          2.95000000	          0.64956477	          9.36744435	          0.38445923	
          2.96000000	          0.69179781	          9.37496716	          0.39208217	
          2.97000000	          0.73267978	          9.38491923	          0.39580573	
          2.98000000	          0.77169645	          9.39718250	          0.39517220	
          2.99000000	          0.80819408	          9.41149914	          0.39003337	
          3.00000000	          0.84144016	          9.42750321	          0.38053615	
          3.01000000	          0.87072406	          9.44477949	          0.36705169	
          3.02000000	          0.89545505	          9.46291551	          0.35008901	
          3.03000000	          0.91522151	          9.48152489	          0.33022976	
          3.04000000	          0.92979723	          9.50024345	          0.30810278	
          3.05000000	          0.93909686	          9.51871631	          0.28437564	
